<svg id="Layer_1" data-name="Layer 1" xmlns="http://www.w3.org/2000/svg" viewBox="0 0 144 117">
  <title>sdg-cities-logo</title>
  <g>
    <g>
      <path d="M9,103.58a1,1,0,0,1,1-1,1,1,0,0,1,.61.2,5,5,0,0,0,3.1,1.08c1.72,0,2.4-.87,2.4-1.69,0-1.11-1.27-1.45-2.73-1.84-1.95-.5-4.24-1.09-4.24-3.71,0-2,1.73-3.61,4.53-3.61a6.38,6.38,0,0,1,3.69,1.13,1,1,0,0,1,.45.83,1,1,0,0,1-1,1,.91.91,0,0,1-.56-.18,4.9,4.9,0,0,0-2.78-.87c-1.41,0-2.2.61-2.2,1.53s1.22,1.28,2.63,1.66c2,.51,4.32,1.15,4.32,3.83,0,2.06-1.4,3.83-4.62,3.83a6.58,6.58,0,0,1-4.22-1.36A1,1,0,0,1,9,103.58Z"/>
      <path d="M20.05,104.37V94.3a1,1,0,0,1,1.12-1.15H24.5a6.19,6.19,0,1,1,0,12.37H21.17A1,1,0,0,1,20.05,104.37Zm4.45-.76a4,4,0,0,0,4.1-4.26c0-2.4-1.43-4.29-4.1-4.29H22.15v8.55Z"/>
      <path d="M43.22,100v2.66a1.74,1.74,0,0,1-.57,1.41,6.34,6.34,0,0,1-4.36,1.66,6.41,6.41,0,0,1,0-12.81,5.43,5.43,0,0,1,4.07,1.67,1,1,0,0,1,.29.72,1,1,0,0,1-1,1,1,1,0,0,1-.7-.29,3.69,3.69,0,0,0-2.69-1.17,4.5,4.5,0,0,0,0,9,4.28,4.28,0,0,0,2.83-1.12v-1.93H38.38a1,1,0,0,1,0-1.91h3.73A1,1,0,0,1,43.22,100Z"/>
      <path d="M44.6,104.11a.82.82,0,0,1,.81-.83,1,1,0,0,1,.45.13,4.41,4.41,0,0,0,2.38.8c1.13,0,1.7-.43,1.7-1.1s-.91-1-2-1.3c-1.49-.33-3.26-.74-3.26-2.74,0-1.47,1.22-2.73,3.41-2.73a5,5,0,0,1,2.88.87.8.8,0,0,1,.34.65.77.77,0,0,1-.75.78.71.71,0,0,1-.41-.13,3.75,3.75,0,0,0-2-.61c-1,0-1.61.37-1.61,1s.86.93,1.88,1.17c1.51.33,3.35.78,3.35,2.89,0,1.58-1.27,2.79-3.6,2.79a5.53,5.53,0,0,1-3.19-1A.84.84,0,0,1,44.6,104.11Z"/>
      <path d="M57.67,93.62a1.2,1.2,0,0,1,1.17-1.21,1.21,1.21,0,0,1,0,2.41A1.2,1.2,0,0,1,57.67,93.62Zm.23,11V97.44a.95.95,0,1,1,1.89,0v7.21a.95.95,0,1,1-1.89,0Z"/>
      <path d="M69.63,99.22v5.43a.94.94,0,1,1-1.88,0V99.92c0-1.39-.68-1.85-1.74-1.85a2.82,2.82,0,0,0-2.22,1.2v5.38a.95.95,0,1,1-1.89,0V97.44a.95.95,0,1,1,1.89,0v.35a4,4,0,0,1,3-1.45A2.54,2.54,0,0,1,69.63,99.22Z"/>
      <path d="M80.66,104.78a.74.74,0,0,1-.51.74,3.09,3.09,0,0,1-1.23.23,2,2,0,0,1-2.23-2.3V98.27H76a.86.86,0,0,1,0-1.71h.71V95a.95.95,0,1,1,1.89,0v1.57h1a.86.86,0,0,1,0,1.71h-1V103c0,.62.28,1.06.82,1.06.22,0,.32,0,.47,0A.77.77,0,0,1,80.66,104.78Z"/>
      <path d="M87.66,104.65V99.89c0-1.4-.7-1.82-1.75-1.82a2.9,2.9,0,0,0-2.23,1.2v5.38a.94.94,0,1,1-1.88,0V94a.94.94,0,1,1,1.88,0v3.77a4.1,4.1,0,0,1,3.07-1.45,2.52,2.52,0,0,1,2.8,2.84v5.47a.95.95,0,1,1-1.89,0Z"/>
      <path d="M95.57,96.34a4.24,4.24,0,0,1,4.26,4.43c0,.58-.39.91-1.11.91H93.15a2.65,2.65,0,0,0,2.76,2.47,3.78,3.78,0,0,0,2-.59.68.68,0,0,1,.41-.11.77.77,0,0,1,.75.78.78.78,0,0,1-.34.64,5.17,5.17,0,0,1-3,.88,4.71,4.71,0,0,1-.14-9.41Zm-2.44,4H98a2.36,2.36,0,0,0-2.44-2.37A2.43,2.43,0,0,0,93.13,100.31Z"/>
      <path d="M105.46,99.35a6.12,6.12,0,0,1,6.19-6.4,5.32,5.32,0,0,1,4.19,1.83,1,1,0,0,1,.25.69,1,1,0,0,1-1,1,1,1,0,0,1-.76-.35,3.5,3.5,0,0,0-2.7-1.26,4.49,4.49,0,0,0,0,8.94,3.51,3.51,0,0,0,2.72-1.26,1,1,0,0,1,.74-.36,1,1,0,0,1,1,1,1,1,0,0,1-.25.69,5.28,5.28,0,0,1-4.19,1.84A6.12,6.12,0,0,1,105.46,99.35Z"/>
      <path d="M117.35,93.62a1.2,1.2,0,0,1,1.17-1.21,1.21,1.21,0,0,1,0,2.41A1.2,1.2,0,0,1,117.35,93.62Zm.24,11V97.44a.94.94,0,1,1,1.88,0v7.21a.94.94,0,1,1-1.88,0Z"/>
      <path d="M126.06,104.78a.74.74,0,0,1-.51.74,3.09,3.09,0,0,1-1.23.23,2,2,0,0,1-2.23-2.3V98.27h-.71a.86.86,0,0,1,0-1.71h.71V95A.95.95,0,1,1,124,95v1.57h1a.86.86,0,0,1,0,1.71h-1V103c0,.62.28,1.06.82,1.06.22,0,.32,0,.47,0A.77.77,0,0,1,126.06,104.78Z"/>
      <path d="M128.06,107.43h.09a1.16,1.16,0,0,0,1.23-.77l.43-1-3.08-7.86a1.29,1.29,0,0,1,0-.35.92.92,0,0,1,1.79-.35l2.33,6.21,2.33-6.21a.93.93,0,0,1,1.81.35,1.43,1.43,0,0,1-.07.37l-3.69,9.35a2.91,2.91,0,0,1-3,2,1.42,1.42,0,0,1-.27,0,.84.84,0,0,1-.77-.85A.89.89,0,0,1,128.06,107.43Z"/>
    </g>
    <g>
      <path d="M37,86.94h73.6a1,1,0,0,0,0-2H107V77.45a5.28,5.28,0,0,0,1.48-9.73,4.07,4.07,0,0,0,1.5-3.17,3.93,3.93,0,1,0-7.85,0,4.07,4.07,0,0,0,1.5,3.17,5.28,5.28,0,0,0,1.48,9.73V85H98.93V50.5a1,1,0,0,0-.94-1H92.72V21.75a1,1,0,0,0-.94-1h-22a1,1,0,0,0-.94,1v16H65.3V10a1,1,0,0,0-1-1H41.82a1,1,0,0,0-.94,1V60.62a4.09,4.09,0,0,0-1.48,7.1,5.28,5.28,0,0,0,1.48,9.73V85H37a1,1,0,0,0,0,2ZM106,62.44a2.11,2.11,0,1,1-2,2.11A2.07,2.07,0,0,1,106,62.44Zm-3.18,9.86A3.18,3.18,0,1,1,106,75.59,3.24,3.24,0,0,1,102.84,72.3Zm-19-32.55V85H63.17V39.75ZM61.28,85H50.22V57.58H61.28V85Zm35.77,0H85.7V51.47H97.05ZM70.76,22.73H90.84V49.52H85.7V38.77a1,1,0,0,0-.94-1h-14ZM41.82,62.44a2.11,2.11,0,1,1-2,2.11A2.07,2.07,0,0,1,41.82,62.44ZM38.64,72.3a3.18,3.18,0,1,1,3.18,3.29A3.24,3.24,0,0,1,38.64,72.3Zm4.13,5.15a5.28,5.28,0,0,0,1.48-9.73,4.09,4.09,0,0,0-1.48-7.1V11H63.41V37.8H62.22a1,1,0,0,0-.94,1V55.62h-12a1,1,0,0,0-1,1V85H42.77V77.45Z"/>
      <path d="M67.2,52.36h3.94a1,1,0,0,0,.94-1v-7a1,1,0,0,0-.94-1H67.2a1,1,0,0,0-.94,1v7A1,1,0,0,0,67.2,52.36Zm1-7h2v5h-2Z" fill="#f36e24"/>
      <path d="M75.84,52.36h3.94a1,1,0,0,0,.94-1v-7a1,1,0,0,0-.94-1H75.84a1,1,0,0,0-.94,1v7A1,1,0,0,0,75.84,52.36Zm1-7h2v5h-2Z" fill="#e01a83"/>
      <path d="M78.45,26.45H74.52a1,1,0,0,0-1,1v7a1,1,0,0,0,1,1h3.93a1,1,0,0,0,.94-1v-7A1,1,0,0,0,78.45,26.45Zm-1,7h-2v-5h2Z" fill="#fdb714"/>
      <path d="M88,34.4v-7a1,1,0,0,0-1-1H83.15a1,1,0,0,0-.94,1v7a1,1,0,0,0,.94,1h3.93A1,1,0,0,0,88,34.4Zm-1.89-1h-2v-5h2Z" fill="#8f1838"/>
      <path d="M67.2,64.77h3.94a1,1,0,0,0,.94-1v-7a1,1,0,0,0-.94-1H67.2a1,1,0,0,0-.94,1v7A1,1,0,0,0,67.2,64.77Zm1-7h2v5h-2Z" fill="#f99d25"/>
      <path d="M75.84,64.77h3.94a1,1,0,0,0,.94-1v-7a1,1,0,0,0-.94-1H75.84a1,1,0,0,0-.94,1v7A1,1,0,0,0,75.84,64.77Zm1-7h2v5h-2Z" fill="#cd8b2a"/>
      <path d="M67.2,77.19h3.94a1,1,0,0,0,.94-1v-7a1,1,0,0,0-.94-1H67.2a1,1,0,0,0-.94,1v7A1,1,0,0,0,67.2,77.19Zm1-7h2v5h-2Z" fill="#40ae49"/>
      <path d="M75.84,77.19h3.94a1,1,0,0,0,.94-1v-7a1,1,0,0,0-.94-1H75.84a1,1,0,0,0-.94,1v7A1,1,0,0,0,75.84,77.19Zm1-7h2v5h-2Z" fill="#00558a"/>
      <path d="M46.8,26.86h3.94a1,1,0,0,0,.94-1v-7a1,1,0,0,0-.94-1H46.8a1,1,0,0,0-.94,1v7A1,1,0,0,0,46.8,26.86Zm1-7h2v5h-2Z" fill="#ea1c2d"/>
      <path d="M55.44,26.86h3.93a1,1,0,0,0,1-1v-7a1,1,0,0,0-1-1H55.44a1,1,0,0,0-.94,1v7A1,1,0,0,0,55.44,26.86Zm1-7h2v5h-2Z" fill="#d19f2a"/>
      <path d="M46.8,39.28h3.94a1,1,0,0,0,.94-1v-7a1,1,0,0,0-.94-1H46.8a1,1,0,0,0-.94,1v7A1,1,0,0,0,46.8,39.28Zm1-7h2v5h-2Z" fill="#2d9a47"/>
      <path d="M55.44,39.28h3.93a1,1,0,0,0,1-1v-7a1,1,0,0,0-1-1H55.44a1,1,0,0,0-.94,1v7A1,1,0,0,0,55.44,39.28Zm1-7h2v5h-2Z" fill="#c22033"/>
      <path d="M51.68,51.6v-7a1,1,0,0,0-.94-1H46.8a1,1,0,0,0-.94,1v7a1,1,0,0,0,.94,1h3.94A1,1,0,0,0,51.68,51.6Zm-1.89-1h-2v-5h2Z" fill="#ef412a"/>
      <path d="M55.44,52.57h3.93a1,1,0,0,0,1-1v-7a1,1,0,0,0-1-1H55.44a1,1,0,0,0-.94,1v7A1,1,0,0,0,55.44,52.57Zm1-7h2v5h-2Z" fill="#00add8"/>
      <path d="M89.34,64.77h3.93a1,1,0,0,0,1-1v-7a1,1,0,0,0-1-1H89.34a1,1,0,0,0-.94,1v7A1,1,0,0,0,89.34,64.77Zm.94-7h2v5h-2Z" fill="#48773c"/>
      <path d="M89.34,77.19h3.93a1,1,0,0,0,1-1v-7a1,1,0,0,0-1-1H89.34a1,1,0,0,0-.94,1v7A1,1,0,0,0,89.34,77.19Zm.94-7h2v5h-2Z" fill="#1a3668"/>
      <path d="M54,77.19h3.93a1,1,0,0,0,1-1v-7a1,1,0,0,0-1-1H54a1,1,0,0,0-.94,1v7A1,1,0,0,0,54,77.19Zm.95-7h2v5h-2Z" fill="#007dbb"/>
    </g>
  </g>
</svg>
