<svg id="Layer_1" data-name="Layer 1" xmlns="http://www.w3.org/2000/svg" viewBox="0 0 144 153">
  <title>sdg-explorers-club-logo</title>
  <g>
    <g>
      <path d="M72.65,9.61l1.54,27.13a2.19,2.19,0,1,1-4.38.25,1,1,0,0,1,0-.25L71.36,9.61A.64.64,0,0,1,72,9,.66.66,0,0,1,72.65,9.61Z" fill="#ea1c2d"/>
      <path d="M52.86,13.13,64.29,37.78a2.2,2.2,0,1,1-4,1.85,2.34,2.34,0,0,1-.09-.24L51.66,13.6a.65.65,0,0,1,1.2-.47Z" fill="#1a3668"/>
      <path d="M36.3,23.21l19.44,19a2.2,2.2,0,0,1-3.06,3.15l-.17-.19L35.35,24.08a.64.64,0,0,1,.09-.91A.65.65,0,0,1,36.3,23.21Z" fill="#00558a"/>
      <path d="M24.43,38.45l24.9,10.88a2.2,2.2,0,0,1-1.76,4l-.23-.12L23.84,39.6a.65.65,0,0,1,.59-1.15Z" fill="#40ae49"/>
      <path d="M18.67,57.45l27.15,1a2.2,2.2,0,1,1-.16,4.39l-.25,0L18.55,58.74a.65.65,0,0,1,.12-1.29Z" fill="#007dbb"/>
      <path d="M20.33,77.68l25.61-9.09a2.2,2.2,0,0,1,1.47,4.14l-.24.07L20.69,78.91a.64.64,0,0,1-.36-1.23Z" fill="#48773c"/>
      <path d="M28.91,95.19,49.56,77.53a2.2,2.2,0,0,1,2.86,3.34l-.2.15L29.69,96.22a.65.65,0,0,1-.78-1Z" fill="#cd8b2a"/>
      <path d="M43,108.36l13.11-23.8a2.2,2.2,0,1,1,3.85,2.12l-.14.21L44.08,109.05a.64.64,0,0,1-.9.15A.66.66,0,0,1,43,108.36Z" fill="#f99d25"/>
      <path d="M61.19,115.79l3.6-26.93a2.2,2.2,0,1,1,4.31.83L62.46,116a.65.65,0,0,1-1.27-.25Z" fill="#e01a83"/>
      <path d="M81.54,116,74.9,89.69a2.2,2.2,0,1,1,4.26-1.08c0,.08,0,.17,0,.25l3.6,26.93a.65.65,0,0,1-.55.73A.66.66,0,0,1,81.54,116Z" fill="#f36e24"/>
      <path d="M99.92,109.05,84.2,86.89a2.19,2.19,0,1,1,3.58-2.54,2.39,2.39,0,0,1,.13.21L101,108.36a.65.65,0,0,1-1.1.69Z" fill="#8f1838"/>
      <path d="M114.31,96.22,91.78,81a2.2,2.2,0,0,1,2.46-3.64l.2.15,20.65,17.66a.65.65,0,0,1,.07.91A.64.64,0,0,1,114.31,96.22Z" fill="#fdb714"/>
      <path d="M123.31,78.91,96.83,72.8a2.2,2.2,0,0,1,1-4.28l.24.07,25.61,9.09a.64.64,0,0,1-.36,1.23Z" fill="#00add8"/>
      <path d="M125.45,58.74,98.59,62.86a2.19,2.19,0,0,1-.66-4.34,1.9,1.9,0,0,1,.25,0l27.15-1a.65.65,0,0,1,.12,1.29Z" fill="#ef412a"/>
      <path d="M120.16,39.6,96.66,53.24a2.2,2.2,0,1,1-2.21-3.8l.22-.11,24.9-10.88a.65.65,0,0,1,.59,1.15Z" fill="#c22033"/>
      <path d="M108.65,24.08,91.49,45.15a2.19,2.19,0,1,1-3.4-2.77,1.54,1.54,0,0,1,.17-.19l19.44-19a.66.66,0,0,1,.92,0A.64.64,0,0,1,108.65,24.08Z" fill="#2d9a47"/>
      <path d="M92.34,13.6,83.79,39.39A2.2,2.2,0,1,1,79.62,38l.09-.23L91.14,13.13a.65.65,0,0,1,1.2.47Z" fill="#d19f2a"/>
    </g>
    <path d="M70.13,52.34,61.61,70.51c-1,2.16.73,4.69,2.63,3.83l7-3.19a1.79,1.79,0,0,1,1.5,0l7,3.19c1.9.86,3.64-1.67,2.63-3.83L73.87,52.34A2,2,0,0,0,70.13,52.34Z" fill="#1a3668"/>
  </g>
  <g>
    <path d="M18,133a1,1,0,0,1,1-1,1,1,0,0,1,.6.2,5.1,5.1,0,0,0,3.07,1c1.71,0,2.38-.84,2.38-1.62,0-1.06-1.26-1.38-2.7-1.75-1.93-.48-4.21-1.05-4.21-3.56,0-2,1.73-3.46,4.5-3.46a6.59,6.59,0,0,1,3.66,1.08,1,1,0,0,1,.44.8,1,1,0,0,1-1,1,.91.91,0,0,1-.55-.18,5,5,0,0,0-2.75-.83c-1.4,0-2.18.58-2.18,1.47s1.2,1.23,2.61,1.58c1.95.5,4.28,1.1,4.28,3.68,0,2-1.39,3.66-4.59,3.66a6.69,6.69,0,0,1-4.17-1.3A1,1,0,0,1,18,133Z" fill="#1a3668"/>
    <path d="M28.68,133.73v-9.64a1,1,0,0,1,1.11-1.1h3.3c3.69,0,6.2,2.45,6.2,5.93s-2.51,5.91-6.2,5.91h-3.3A1,1,0,0,1,28.68,133.73Zm4.41-.73a3.89,3.89,0,0,0,4.07-4.08,3.84,3.84,0,0,0-4.07-4.1H30.76V133Z" fill="#1a3668"/>
    <path d="M51.36,129.58v2.54a1.64,1.64,0,0,1-.57,1.35,6.44,6.44,0,0,1-4.31,1.59,6.14,6.14,0,1,1,0-12.27,5.46,5.46,0,0,1,4,1.6,1,1,0,0,1,.28.69,1,1,0,0,1-1,1,1,1,0,0,1-.69-.28,3.71,3.71,0,0,0-2.66-1.12,4.29,4.29,0,0,0,0,8.58,4.32,4.32,0,0,0,2.8-1.07V130.3H46.56a.91.91,0,1,1,0-1.82h3.7A1,1,0,0,1,51.36,129.58Z" fill="#1a3668"/>
    <path d="M57.73,133.73v-9.64a1,1,0,0,1,1.1-1.1H65a.92.92,0,1,1,0,1.83H59.81v3.07h5.1a.92.92,0,1,1,0,1.83h-5.1V133H65a.92.92,0,1,1,0,1.83h-6.2A1,1,0,0,1,57.73,133.73Z" fill="#1a3668"/>
    <path d="M74.67,134.09a.85.85,0,0,1-1.5.55l-2.44-3-2.41,2.94a.89.89,0,0,1-.68.36.85.85,0,0,1-.85-.85.82.82,0,0,1,.2-.54l2.64-3.17-2.47-2.81A.93.93,0,0,1,67,127a.89.89,0,0,1,.87-.89.77.77,0,0,1,.62.28l2.29,2.68L73,126.43a.77.77,0,0,1,.62-.28.9.9,0,0,1,.88.89.88.88,0,0,1-.22.53l-2.47,2.81,2.65,3.17A.87.87,0,0,1,74.67,134.09Z" fill="#1a3668"/>
    <path d="M84.19,130.54c0,2.82-1.58,4.51-3.8,4.51a3.35,3.35,0,0,1-2.75-1.41v3.63a.94.94,0,1,1-1.87,0V127.09a.94.94,0,1,1,1.87,0v.34A3.43,3.43,0,0,1,80.39,126C82.61,126,84.19,127.71,84.19,130.54Zm-1.93,0c0-1.66-1-2.85-2.42-2.85a2.78,2.78,0,0,0-2.2,1.16v3.39a2.83,2.83,0,0,0,2.2,1.15C81.31,133.39,82.26,132.2,82.26,130.54Z" fill="#1a3668"/>
    <path d="M85.6,134V123.82a.93.93,0,1,1,1.86,0V134a.93.93,0,1,1-1.86,0Z" fill="#1a3668"/>
    <path d="M88.82,130.54a4.41,4.41,0,1,1,4.4,4.51A4.29,4.29,0,0,1,88.82,130.54Zm6.89,0a2.5,2.5,0,1,0-2.49,2.85A2.58,2.58,0,0,0,95.71,130.54Z" fill="#1a3668"/>
    <path d="M103.8,127c0,.43-.32.8-1,.89a3.08,3.08,0,0,0-2,1.12v5a.94.94,0,0,1-.92.94A1,1,0,0,1,99,134v-6.91a.93.93,0,1,1,1.86,0v.43a3.87,3.87,0,0,1,1.66-1.3,1.46,1.46,0,0,1,.49-.11A.77.77,0,0,1,103.8,127Z" fill="#1a3668"/>
    <path d="M108.23,126a4.14,4.14,0,0,1,4.23,4.25c0,.55-.4.87-1.11.87h-5.52a2.6,2.6,0,0,0,2.74,2.36,3.88,3.88,0,0,0,2-.57.76.76,0,0,1,.41-.11.75.75,0,0,1,.74.75.76.76,0,0,1-.33.62,5.33,5.33,0,0,1-3,.84,4.51,4.51,0,0,1-.14-9Zm-2.42,3.8h4.83a2.28,2.28,0,0,0-2.41-2.27A2.37,2.37,0,0,0,105.81,129.84Z" fill="#1a3668"/>
    <path d="M118.53,127c0,.43-.32.8-1,.89a3.08,3.08,0,0,0-2,1.12v5a.94.94,0,0,1-.92.94,1,1,0,0,1-.94-.94v-6.91a.93.93,0,1,1,1.86,0v.43a3.82,3.82,0,0,1,1.66-1.3,1.46,1.46,0,0,1,.49-.11A.77.77,0,0,1,118.53,127Z" fill="#1a3668"/>
    <path d="M118.91,133.48a.8.8,0,0,1,.8-.8,1,1,0,0,1,.45.13,4.44,4.44,0,0,0,2.36.76c1.12,0,1.69-.41,1.69-1s-.91-1-2-1.24c-1.47-.32-3.23-.71-3.23-2.63,0-1.4,1.21-2.61,3.38-2.61a4.93,4.93,0,0,1,2.85.84.74.74,0,0,1-.4,1.36.76.76,0,0,1-.41-.12,3.82,3.82,0,0,0-2-.59c-1,0-1.6.36-1.6,1s.86.89,1.87,1.12c1.49.32,3.32.75,3.32,2.77,0,1.51-1.26,2.67-3.57,2.67a5.63,5.63,0,0,1-3.16-.91A.81.81,0,0,1,118.91,133.48Z" fill="#1a3668"/>
  </g>
</svg>
