<?xml version="1.0" encoding="utf-8"?>
<!-- Generator: Adobe Illustrator 23.0.3, SVG Export Plug-In . SVG Version: 6.00 Build 0)  -->
<svg version="1.1" id="Layer_1" xmlns="http://www.w3.org/2000/svg" xmlns:xlink="http://www.w3.org/1999/xlink" x="0px" y="0px"
	 viewBox="0 0 1000 1000" style="enable-background:new 0 0 1000 1000;" xml:space="preserve">
<style type="text/css">
	.st0{fill:#FCC30B;}
	.st1{fill:#FFFFFF;}
</style>
<title>Artboard 1</title>
<rect id="_Path_" y="0" class="st0" width="1000" height="1000"/>
<g>
	<path id="_Compound_Path_" class="st1" d="M500,354.7c-81,0-146.6,65.6-146.6,146.5c0,81,65.6,146.6,146.5,146.6
		s146.6-65.6,146.6-146.5c0,0,0,0,0-0.1C646.5,420.3,580.9,354.7,500,354.7 M489.1,412.6c0-4.9,4.9-10.2,10.9-10.2
		s10.9,5.4,10.9,10.2v50.3c0,4.8-4.9,10.2-10.9,10.2s-10.9-5.3-10.9-10.2V412.6z M500,576.4c-42.1-0.1-76.2-34.3-76.1-76.4
		c0.1-33.3,21.7-62.7,53.5-72.6v28.4c-24.5,12.5-34.3,42.6-21.8,67.1c12.5,24.5,42.6,34.3,67.1,21.8c24.5-12.5,34.3-42.6,21.8-67.1
		c-4.8-9.4-12.5-17.1-21.9-21.9v-28.4c40.2,12.5,62.7,55.2,50.3,95.4C562.9,554.6,533.4,576.4,500,576.4"/>
	<path id="_Path_3" class="st1" d="M331.7,500c0-6.7-5.9-12-11.3-12h-64.2c-5.4,0-11.4,5.4-11.4,12s5.9,12.1,11.4,12.1h64.2
		C325.8,512.1,331.7,506.6,331.7,500"/>
	<path id="_Path_4" class="st1" d="M755.1,500c0-6.7-5.9-12-11.3-12h-64.2c-5.4,0-11.3,5.4-11.3,12s5.9,12.1,11.3,12.1h64.2
		C749.2,512.1,755.1,506.6,755.1,500"/>
	<path id="_Path_5" class="st1" d="M500,331.7c6.6,0,12-5.9,12-11.3v-64.2c0-5.4-5.4-11.4-12-11.4s-12.1,5.9-12.1,11.4v64.2
		C487.9,325.8,493.3,331.7,500,331.7"/>
	<path id="_Path_6" class="st1" d="M500,755.1c6.6,0,12-5.9,12-11.3v-64.2c0-5.4-5.4-11.3-12-11.3s-12.1,6-12.1,11.3v64.2
		C487.9,749.2,493.3,755.1,500,755.1"/>
	<path id="_Path_7" class="st1" d="M354,416.4c3.3-5.8,0.9-13.4-3.8-16l-55.7-31.9c-4.7-2.7-12.5-1-15.8,4.8s-0.8,13.4,3.9,16.1
		l55.7,31.9C342.9,424,350.7,422.2,354,416.4"/>
	<path id="_Path_8" class="st1" d="M721.4,626.7c3.3-5.8,0.9-13.4-3.8-16l-55.7-31.9c-4.7-2.7-12.5-1-15.8,4.8s-0.8,13.4,3.8,16.1
		l55.7,31.9C710.3,634.3,718.1,632.5,721.4,626.7"/>
	<path id="_Path_9" class="st1" d="M583.6,354c5.8,3.3,13.3,0.9,16-3.8l31.9-55.7c2.7-4.7,1-12.5-4.8-15.8s-13.4-0.8-16.1,3.9
		l-31.9,55.7C576,342.9,577.8,350.7,583.6,354"/>
	<path id="_Path_10" class="st1" d="M373.3,721.4c5.8,3.3,13.4,0.9,16-3.8l31.9-55.7c2.7-4.7,1-12.5-4.8-15.8s-13.4-0.8-16.1,3.9
		l-31.9,55.7C365.8,710.3,367.5,718.1,373.3,721.4"/>
	<path id="_Path_11" class="st1" d="M416.1,354.1c5.8-3.3,7.5-11.1,4.8-15.8l-32-55.6c-2.7-4.7-10.3-7.1-16.1-3.8
		s-7.5,11.2-4.8,15.9l32,55.6C402.8,355,410.4,357.4,416.1,354.1"/>
	<path id="_Path_12" class="st1" d="M627.2,721.1c5.8-3.3,7.5-11.1,4.8-15.8l-32-55.6c-2.7-4.7-10.3-7.2-16.1-3.8
		s-7.5,11.2-4.8,15.9l32,55.6C613.8,722,621.4,724.4,627.2,721.1"/>
	<path id="_Path_13" class="st1" d="M645.9,416.1c3.3,5.8,11.1,7.5,15.8,4.8l55.6-32c4.7-2.7,7.2-10.3,3.9-16.1s-11.2-7.5-15.9-4.8
		l-55.6,32C645,402.7,642.6,410.4,645.9,416.1"/>
	<path id="_Path_14" class="st1" d="M278.9,627.2c3.3,5.8,11.1,7.5,15.8,4.8l55.6-32c4.7-2.7,7.2-10.3,3.8-16.1s-11.2-7.5-15.9-4.8
		l-55.6,32C278,613.8,275.6,621.4,278.9,627.2"/>
</g>
</svg>
