<?xml version="1.0" encoding="utf-8"?>
<!-- Generator: Adobe Illustrator 23.0.3, SVG Export Plug-In . SVG Version: 6.00 Build 0)  -->
<svg version="1.1" id="Layer_1" xmlns="http://www.w3.org/2000/svg" xmlns:xlink="http://www.w3.org/1999/xlink" x="0px" y="0px"
	 viewBox="0 0 1000 1000" style="enable-background:new 0 0 1000 1000;" xml:space="preserve">
<style type="text/css">
	.st0{fill:#3F7E44;}
	.st1{fill:#FFFFFF;}
</style>
<title>Artboard 1</title>
<rect class="st0" width="1000" height="1000"/>
<path class="st1" d="M867.1,495.8C840.7,458.9,721.6,311.4,500,311.4S159.3,458.9,132.9,495.8c-1.1,1.6-2.1,3-2.9,4.1
	c0.8,1.2,1.8,2.5,2.9,4.2c26.4,37,145.5,184.5,367.1,184.5s340.7-147.6,367.1-184.5c1.2-1.6,2.1-3,2.8-4.2
	C869.2,498.8,868.2,497.5,867.1,495.8 M376.5,404.7c2-2.9,8.6-11.3,9.4-12.3c1.7-2.2,5.1-2.7,7.5-3.1s5.5,0.9,5.9,2.6
	s-0.9,8.6-2.1,9.8c-3.2,3.4-11.7,8.1-16.4,7.4C377.2,408.5,375.8,405.7,376.5,404.7 M368.5,420.4c0.4-0.4,0.7-0.8,0.8-0.9
	c2.8-3.2,8.3-3.9,12.2-4.5s9,1.3,9.6,3.8s-9.6,7.2-11.5,9c-5.3,4.9-13.7,14.9-18.5,16c-1.3,0.3-2.8,0.2-4-0.4
	C360.2,435.5,364,427.8,368.5,420.4 M451.4,590.5c-3,11.8-6.5,16.1-9.5,19.8c-3,3.7-14,8.6-21,8.1s-8-19.2-8-28.9
	c0-3.3-4.7,6.5-7.2-13.5c-1.6-12.8-9.8,1.3-10.4-7.2c-0.6-8.6-4.7-6.8-9-12.2s-9.7,0.5-15.7,3.2s-3.5,4.1-12,1.4
	c-0.2-0.1-0.3-0.1-0.5-0.2c-8.1-19-12.2-39.4-12.2-60.1c0-5.2,0.3-10.3,0.8-15.4c0.3-0.5,0.6-1,1-1.4c8.2-9.7,8-11.9,8-11.9l9-3.1
	c0,0,14.4,2.2,25.3,6.3c9,3.3,23,10.9,31.2,7.6c5.9-2.4,10.6-5.7,10-10.6c-0.7-6.2-5.5-7.7-11.4-3.5c-2.2,1.5-6.8-9.3-10.5-8.8
	s4.5,12.8,1.4,13.3s-9.3-12.7-10.4-14.9s-5.9-7.5-10.2-3.4c-9.1,8.7-23.9,8.1-26.9,10.3c-9,6.8-11.4-2.2-11.2-7.7
	c0.4-1.2,0.7-2.5,1.1-3.8c3-3.2,13.5-4.3,17.2-1.9c4,2.7,6.9-0.7,8.4-2.3s1-4.2,0-6.3s2-3.7,4.1-4.3s9-5.4,11.7-7s17-3.3,23.4-0.1
	c5.2,2.8,11.7,1.5,15.4-3.1c3.1-3.7,6.9-6.9,11.2-9.3c2.2-1-5.5-8.3-11.9-0.4s-9.6,8.6-12.6,8.6s-20.8-4.4-23-10.1s5.6-9.8,12.1-13
	s24.6-3.1,29.2-4.1c9.4-2,21.3-6.8,27.3-2.7s-25.1,11.1-14.9,16.7c3.6,2,20.1-9.5,25.8-12.4c13.3-6.8-12.9-9.1-9.5-23
	c3.8-15.7-32.1-9.6-50-8.3c71.8-45.9,167.2-25,213.1,46.8c9.3,14.5,16,30.4,20.1,47.1c0.1,2.4-0.2,4.8-0.8,7.2
	c-1.4,5.6-12,10.3-18.1,1.4c-1.6-2.3-8.2-8.5-8,2.2s10.4,11.8,0.5,18.2s-11.7,4.9-16.2,6.5s-9,12.6-7.9,18.5s15.2,22,4.7,21.3
	c-2.5-0.2-20.9-12.8-23.9-20.9c-3.2-8.5-6.7-16.9-9.2-23.3s-9-8-14.5-4.3s1.5,7.5-2.4,15.5c-4,8-6.8,15.2-12.5,8.6
	c-15.1-17.3-37-8.7-40.4-28c-1.9-10.4-10.8-9.4-18.3-15.3s-11.7-9-13-4.8c-1.1,3.7,23.6,23.3,25.4,28.3c2.6,7.5-7.4,14-14.7,15.8
	c-7.3,1.8-10.5-4.1-17.7-11.6s-10.3-12.8-10.8-6.9c-0.7,8.5,6.8,21,14.1,25.6c6.2,3.9,13.2,5.7,11.2,12.2c-2,6.4,0,2.8-7,9.7
	c-7,6.9-8.3,9.2-7.8,18.8s-2,10.2-3.5,18.2S454.4,578.7,451.4,590.5 M617,529c5.2-0.4,13,6.8,9.9,9.5s-10.8,1.7-14.7-1.3
	C608.3,534.1,614.7,529.2,617,529 M610.4,524.2c-1.7-0.6-3.1-2.2-4.4-6c-1.3-3.8,1.9-6,5-4.4c3.1,1.6,7.3,6.3,7.3,8.8
	C618.3,525.2,612.1,524.9,610.4,524.2 M542.3,523.9c-3,2.7-10.8,1.7-14.8-1.3c-3.9-3,2.5-8,4.8-8.2
	C537.5,513.9,545.3,521.2,542.3,523.9 M479.3,554.6c-2.1,3.5-7.9,29.4-11.8,26.4c-3.9-3,1.6-30.1,2.7-32.2
	C476.3,537.6,489.5,538.2,479.3,554.6 M500.3,655.2c-14.7,0-29.3-2.1-43.4-6.2c-2.3-1.8-3-4.9-1.9-7.5c4.8-12.4,19-17.3,30.2-18.4
	c25-2.4,57.9,16.2,63.1,13.2s15.8-16.8,31.3-16.2c10.6,0.4,10.5,2.2,14.1,3.5C567,644.1,534.1,655.2,500.3,655.2 M609.2,610.2
	c-1.7-0.4-3.3-1-4.8-1.8c-8.4-4.3-7.4,2.6-11.6,1c-4.1-1.6,4.7-11.2-7.8-3s-9-1.3-14.5-15s6.2-29.4,16-33c13.4-4.8,21.7-5.8,28-7.4
	c18.5-4.6,22.5-15.6,25.8-8.9c0.6,1.2,1.2,2.5,1.8,3.6c1.5,3.2,2.3,6.6,2.3,10.1C636.7,576.3,624.6,594.8,609.2,610.2 M651.4,532.4
	c-4.1-1.1-21.5-25.1-7.8-40.8c2.3-2.6-4.6-10.2-2.7-10.4c7.5-0.6,11.5,4.1,13.5,10.8c0.2,3,0.3,5.9,0.3,9
	C654.6,511.5,653.6,522.1,651.4,532.4"/>
</svg>
