<?xml version="1.0" encoding="utf-8"?>
<!-- Generator: Adobe Illustrator 23.0.3, SVG Export Plug-In . SVG Version: 6.00 Build 0)  -->
<svg version="1.1" id="Layer_1" xmlns="http://www.w3.org/2000/svg" xmlns:xlink="http://www.w3.org/1999/xlink" x="0px" y="0px"
	 viewBox="0 0 1000 1000" style="enable-background:new 0 0 1000 1000;" xml:space="preserve">
<style type="text/css">
	.st0{fill:#FD6925;}
	.st1{fill:#FFFFFF;}
</style>
<title>Artboard 1</title>
<rect id="_Path_" y="0" class="st0" width="1000" height="1000"/>
<path id="_Compound_Path_2" class="st1" d="M749.9,528.4L631,459.8V322.6c0-2.9-1.5-5.5-4-7l-122.9-71c-2.5-1.5-5.6-1.5-8.1,0
	l-123,71c-2.5,1.5-4,4.1-4,7v137.3l-118.9,68.6c-2.5,1.4-4.1,4.1-4.1,7v142c0,2.9,1.6,5.6,4.1,7l122.9,71c2.5,1.4,5.6,1.4,8.1,0
	L500,686.8l118.8,68.6c2.5,1.4,5.6,1.4,8.1,0l122.9-71c2.5-1.4,4-4.1,4.1-7v-142C753.9,532.5,752.4,529.9,749.9,528.4z M491.9,663.4
	l-98.6-56.9l98.6-56.9L491.9,663.4z M606.7,464.5l-98.6,56.9V407.6L606.7,464.5z M491.9,521.4l-98.6-56.9l98.6-56.9L491.9,521.4z
	 M516.2,535.4l106.7-61.5l106.7,61.6l-106.7,61.6L516.2,535.4z M614.8,450.4l-98.6-56.9l98.6-56.9V450.4z M483.8,393.5l-98.6,56.9
	V336.6L483.8,393.5z M369,734.3l-106.7-61.6V549.5L369,611.2V734.3z M385.2,734.3V620.5l98.6,56.9L385.2,734.3z M737.7,672.7
	L631,734.3V611.2l106.7-61.6L737.7,672.7z"/>
</svg>
