<?xml version="1.0" encoding="utf-8"?>
<!-- Generator: Adobe Illustrator 23.0.3, SVG Export Plug-In . SVG Version: 6.00 Build 0)  -->
<svg version="1.1" id="Layer_1" xmlns="http://www.w3.org/2000/svg" xmlns:xlink="http://www.w3.org/1999/xlink" x="0px" y="0px"
	 viewBox="0 0 1000 1000" style="enable-background:new 0 0 1000 1000;" xml:space="preserve">
<style type="text/css">
	.st0{fill:#E5243B;}
	.st1{fill:#FFFFFF;}
</style>
<title>Artboard 1</title>
<rect class="st0" width="1000" height="1000"/>
<g>
	<g>
		<path class="st1" d="M787.5,364.3c0-15.3,12.4-27.7,27.7-27.6c15.3,0,27.7,12.4,27.6,27.7c0,15.3-12.4,27.6-27.6,27.6
			C799.9,392,787.5,379.6,787.5,364.3"/>
		<path class="st1" d="M847.5,402.7c19,1.8,33.5,17.7,33.5,36.8v76.8c0,5.9-4.8,10.7-10.7,10.7c-5.9,0-10.7-4.8-10.7-10.7v-66
			c0-2.5-0.7-5.8-5.2-5.8c-3.1,0-3.8,3.3-3.9,5.4v197.5c0,8.5-6.9,15.4-15.4,15.4c-8.5,0-15.4-6.9-15.4-15.4V533.6
			c0-1.3-0.5-4.5-4.4-4.5l0,0c-3.9,0-4.4,3.3-4.5,4.5v113.8c0.2,8.5-6.5,15.6-15,15.8s-15.6-6.5-15.8-15c0-0.3,0-0.5,0-0.8V449.9
			c-0.1-2.1-0.8-5.4-3.9-5.4c-4.5,0-5.2,3.3-5.2,5.8v65.9c-0.3,5.9-5.3,10.5-11.2,10.3c-5.6-0.2-10-4.7-10.3-10.3v-76.8
			c0-19.1,14.5-35,33.5-36.8c0.7-0.1,1.3-0.2,2-0.2h60.5C846.1,402.5,846.8,402.6,847.5,402.7"/>
	</g>
	<g>
		<path class="st1" d="M622.9,378.9c0-14.5-11.7-26.2-26.2-26.2c-14.5,0-26.2,11.7-26.2,26.2s11.7,26.2,26.2,26.2c0,0,0,0,0,0
			C611.2,405.1,622.9,393.3,622.9,378.9"/>
		<path class="st1" d="M543.9,438.2l-21.8,71c0,0-3.9,13,7.2,16.3c11,3.2,14.3-9.4,14.3-9.4l17.6-59.2c0,0,1-4.6,4.4-3.6
			s2.1,5.8,2.1,5.8l-30.6,111h28.4v79.5c0.2,7.5,6.5,13.5,14,13.3c7.3-0.2,13.1-6,13.3-13.3V570h7.8v79.5c0.2,7.5,6.5,13.5,14,13.3
			c7.3-0.2,13.1-6,13.3-13.3V570h28.4l-30.6-111c0,0-1.3-4.8,2.1-5.8s4.4,3.6,4.4,3.6l17.6,59.2c0,0,3.3,12.7,14.3,9.4
			s7.2-16.2,7.2-16.2l-21.8-71c0,0-7.8-20.5-25-20.5h-55.6C551.7,417.7,543.9,438.2,543.9,438.2"/>
	</g>
	<g>
		<path class="st1" d="M465.9,378.9c0-14.5-11.7-26.2-26.2-26.2c-14.5,0-26.2,11.7-26.2,26.2c0,14.5,11.7,26.2,26.2,26.2l0,0
			C454.2,405.1,465.9,393.3,465.9,378.9"/>
		<path class="st1" d="M386.9,438.2l-21.8,71c0,0-3.9,13,7.1,16.3s14.3-9.4,14.3-9.4l17.6-59.2c0,0,1-4.6,4.4-3.6s2.1,5.8,2.1,5.8
			l-30.6,111h28.4v79.5c0,7.5,6.1,13.7,13.7,13.7s13.7-6.1,13.7-13.7l0,0V570h7.8v79.5c0.2,7.5,6.5,13.5,14,13.3
			c7.3-0.2,13.1-6,13.3-13.3V570h28.5l-30.6-111c0,0-1.3-4.9,2.1-5.8s4.4,3.6,4.4,3.6l17.6,59.2c0,0,3.3,12.7,14.3,9.4
			c11-3.2,7.1-16.2,7.1-16.2l-21.8-71c0,0-7.8-20.5-25-20.5h-55.6C394.7,417.7,386.9,438.2,386.9,438.2"/>
	</g>
	<g>
		<path class="st1" d="M710.9,525.6c12.1,0,21.8-9.8,21.8-21.8c0-12.1-9.8-21.8-21.8-21.8c-12,0-21.8,9.8-21.8,21.8
			C689.1,515.8,698.8,525.6,710.9,525.6C710.9,525.6,710.9,525.6,710.9,525.6"/>
		<path class="st1" d="M658.6,593.4c-1.1,2.5-1.9,8,3.2,10.3c6,2.8,9.3-3,9.3-3l11.9-37.8c0,0,2.1-2.5,2.1,0.1v89h0
			c0.2,6.2,5.3,11,11.5,10.9c5.9-0.2,10.7-4.9,10.9-10.9v-35.2c0,0-0.7-5,3.4-5s3.4,5,3.4,5V652c0,6.2,5,11.2,11.2,11.2
			c6.2,0,11.2-5,11.2-11.2v-89.1c0-2.6,1.4-0.8,1.4-0.8l9.3,25.9c0,0,4,11.6,5.3,12.1c4.2,1.8,9-0.2,10.8-4.4c0,0,0,0,0,0
			c1.1-2.6,0.8-5.7-0.9-8l0.1-0.1c-0.3-0.8-13.9-34.3-15.5-39c-4.9-14.4-13.9-14.2-22.5-14.5s-13.8,0-13.8,0s-5.5-0.2-16.9,0.1
			s-15,6.2-27.5,38.5C664.7,577.4,658.6,592.4,658.6,593.4L658.6,593.4z"/>
	</g>
	<g>
		<path class="st1" d="M204.1,392c15.3,0,27.7-12.4,27.7-27.7c0-15.3-12.4-27.7-27.7-27.7s-27.7,12.4-27.7,27.7c0,0,0,0,0,0
			C176.4,379.6,188.8,392,204.1,392z"/>
		<path class="st1" d="M236.6,402.5c-0.7-0.1-1.5-0.3-2.2-0.3h-60.5c-0.7,0.1-1.3,0.2-2,0.3c-19,1.8-33.5,17.8-33.5,36.9v76.8
			c0,3.9,2.1,7.6,5.6,9.5c-0.2,0.3-0.3,0.6-0.4,0.9L119,656.9c-0.4,2.2,1,4.3,3.1,4.7c0,0,0.1,0,0.1,0c0.2,0,0.5,0.1,0.8,0.1
			c2,0,3.6-1.4,4-3.3l24.6-130.3c0-0.5,0-1-0.1-1.5c4.7-1.2,8-5.5,7.9-10.4v-66c0-2.5,0.6-5.8,5.2-5.8c3.1,0,3.8,3.3,3.8,5.4v197.5
			c0,8.6,6.9,15.5,15.5,15.5s15.5-6.9,15.5-15.5V533.6c0-2.4,1.8-4.3,4.2-4.4c0.1,0,0.3,0,0.4,0l0,0c3.9,0,4.3,3.1,4.3,4.4v113.8
			c0,8.6,6.9,15.5,15.5,15.5s15.5-6.9,15.5-15.5V449.9c0-2.1,0.7-5.4,3.8-5.4c4.6,0,5.2,3.3,5.2,5.8v65.9c0,6.1,4.9,11,11,11
			c6.1,0,11-4.9,11-11v-76.8C270.3,420.3,255.7,404.3,236.6,402.5z"/>
	</g>
	<g>
		<path class="st1" d="M343.6,561.6l20.2-36.8c0,0,2.4-5.3,2.4-6.5c-0.1-4.4-3.7-7.9-8.1-7.9c-2.7,0-5.1,1.4-6.6,3.7h-0.1
			c-0.6,0.5-10.8,18.6-14.2,22c-3.5,3.6-6.7,3.1-6.7,3.1h-26.4c0,0-3.2,0.5-6.7-3.1c-3.4-3.4-13.5-21.5-14.2-22l-0.1,0.1
			c-2.4-3.7-7.4-4.7-11.1-2.3c-2.2,1.4-3.5,3.8-3.6,6.4c0.1,1.2,0.4,2.4,0.8,3.5l22,39.8c0.8,1.7,1.2,3.4,1.3,5.2v7.8l-11.5,42.5
			h11.5v35h0.1c0.1,6,4.9,10.8,10.9,10.8c6,0.1,10.8-4.7,10.9-10.7v-33.7c-0.3-0.4-0.5-0.9-0.4-1.4h6.5c0.1,0.5,0,1-0.1,1.4v33.7
			c0,6.1,4.9,11,11,11s11-4.9,11-11v-35.1h11.3l-11.3-42.8v-7.6C342.5,565.1,342.9,563.3,343.6,561.6z"/>
		<path class="st1" d="M317.3,525.6c12.1,0,21.8-9.8,21.8-21.8c0-12.1-9.8-21.8-21.8-21.8c-12,0-21.8,9.8-21.8,21.8
			C295.4,515.8,305.2,525.6,317.3,525.6C317.2,525.6,317.3,525.6,317.3,525.6z"/>
	</g>
</g>
</svg>
