<?xml version="1.0" encoding="utf-8"?>
<!-- Generator: Adobe Illustrator 23.0.3, SVG Export Plug-In . SVG Version: 6.00 Build 0)  -->
<svg version="1.1" id="Layer_1" xmlns="http://www.w3.org/2000/svg" xmlns:xlink="http://www.w3.org/1999/xlink" x="0px" y="0px"
	 viewBox="0 0 1000 1000" style="enable-background:new 0 0 1000 1000;" xml:space="preserve">
<style type="text/css">
	.st0{fill:#C5192D;}
	.st1{fill:#FFFFFF;}
</style>
<title>Artboard 1</title>
<rect class="st0" width="1000" height="1000"/>
<g>
	<polygon class="st1" points="438.3,405.4 259,301.8 259,636.8 438.3,690.9 	"/>
	<polygon class="st1" points="458,406.1 458,691 638.5,636.8 638.5,301.8 	"/>
	<path class="st1" d="M779.3,293.3c0.3-11.7-9-21.4-20.8-21.7c-11.7-0.3-21.4,9-21.7,20.8c0,0.3,0,0.6,0,0.9v22.9h42.4V293.3z"/>
	<polygon class="st1" points="742.2,630.9 736.9,630.9 758.1,705 779.3,630.9 774,630.9 779.3,630.9 779.3,332.8 774,332.8 
		768.8,332.8 763.2,332.8 752.6,332.8 747.4,332.8 742.2,332.8 736.9,332.8 736.9,630.9 	"/>
	<polygon class="st1" points="677.1,316.2 657.8,301 657.8,645.9 458.6,710.3 449.3,710.3 447.5,710.3 438.3,710.3 239.9,654.9 
		239.9,301 220.7,316.2 220.7,668.4 437.4,728.4 447.5,728.4 449.3,728.4 459.5,728.4 659.4,664.9 677.1,659.7 	"/>
</g>
</svg>
