<?xml version="1.0" encoding="utf-8"?>
<!-- Generator: Adobe Illustrator 23.0.3, SVG Export Plug-In . SVG Version: 6.00 Build 0)  -->
<svg version="1.1" id="Layer_1" xmlns="http://www.w3.org/2000/svg" xmlns:xlink="http://www.w3.org/1999/xlink" x="0px" y="0px"
	 viewBox="0 0 1000 1000" style="enable-background:new 0 0 1000 1000;" xml:space="preserve">
<style type="text/css">
	.st0{fill:#DDA63A;}
	.st1{fill:#FFFFFF;}
</style>
<title>Artboard 1</title>
<rect id="_Path_" y="0" class="st0" width="1000" height="1000"/>
<g>
	<path id="_Path_3" class="st1" d="M413.1,708.7v14.1c0,0.1,0,0.2,0,0.3c0,0.1,0,0.2,0,0.3c0.1,3.5,3,6.3,6.5,6.3c0,0,0.1,0,0.1,0
		h0.2h165c0,0,0.1,0,0.1,0h0.2c3.6-0.1,6.5-3,6.5-6.6l0,0c0,0,0,0,0,0v-16c92.9-30.4,162.4-105.7,177.7-197.4c0-0.2,0.1-0.4,0.1-0.5
		c0.1-0.3,0.1-0.6,0.1-0.9c0-3.7-3-6.7-6.7-6.7c0,0,0,0,0,0H237.1c-3.7,0-6.7,3-6.7,6.6c0,0,0,0,0,0l0.4,3
		C246.8,603.8,318.3,679.5,413.1,708.7"/>
	<path id="_Path_4" class="st1" d="M591.5,277.2c-2.2,3.1-53,76.2,1.1,135.3c24.8,27.1,22.7,51.1,15.6,67.2h34.7
		c7-23.9,4.1-53.8-24-84.6c-39.9-43.6,0.5-102.5,1.1-103.4c4.8-6.7,2.2-15.4-5.6-19.4S596.3,270.5,591.5,277.2"/>
	<path id="_Path_5" class="st1" d="M503.6,479.7h34.7c7-23.9,4.1-53.8-24.1-84.6c-39.9-43.6,0.5-102.5,1.1-103.4
		c4.7-6.7,2.2-15.3-5.6-19.4c-7.9-4-18.1-1.9-22.8,4.8c-2.2,3.1-53,76.2,1.1,135.3C512.8,439.6,510.6,463.6,503.6,479.7"/>
	<path id="_Path_6" class="st1" d="M382.3,277.2c-2.2,3.1-53,76.2,1.1,135.3c24.8,27.2,22.7,51.1,15.6,67.2h34.7
		c7-23.9,4.1-53.8-24.1-84.6c-39.9-43.6,0.5-102.5,1.1-103.4c4.7-6.7,2.2-15.4-5.7-19.4S387,270.5,382.3,277.2"/>
</g>
</svg>
