<?xml version="1.0" encoding="utf-8"?>
<!-- Generator: Adobe Illustrator 23.0.3, SVG Export Plug-In . SVG Version: 6.00 Build 0)  -->
<svg version="1.1" id="Layer_1" xmlns="http://www.w3.org/2000/svg" xmlns:xlink="http://www.w3.org/1999/xlink" x="0px" y="0px"
	 viewBox="0 0 1000 1000" style="enable-background:new 0 0 1000 1000;" xml:space="preserve">
<style type="text/css">
	.st0{fill:#FF3A21;}
	.st1{fill:#FFFFFF;}
</style>
<title>Artboard 1</title>
<rect class="st0" width="1000" height="1000"/>
<g>
	<path class="st1" d="M695.6,233.9H571.4c-0.9,0-1.6,0.7-1.6,1.6v41.3c0,0.9,0.7,1.6,1.6,1.6h49.5l-55,55
		c-28.6-22.5-63.9-34.8-100.4-34.8c-89.8,0-162.8,73-162.8,162.8c0,82.6,61.9,151,141.8,161.4v47.6h-49c-0.9,0-1.6,0.7-1.6,1.5
		c0,0,0,0,0,0v44.3c0,0.9,0.7,1.6,1.6,1.6c0,0,0,0,0,0h49v46.7c0,0.9,0.7,1.6,1.6,1.6c0,0,0,0,0,0h44.2c0.9,0,1.6-0.7,1.6-1.6v0
		v-46.8h49c0.9,0,1.6-0.7,1.6-1.6c0,0,0,0,0,0v-44.3c0-0.9-0.7-1.6-1.6-1.6l0,0h-49v-48.4c77.2-12.7,136.3-79.8,136.3-160.6
		c0-33.5-10.4-66.2-29.7-93.6l54.2-54.2v46.2c0,0.9,0.7,1.6,1.6,1.6h41.3c0.9,0,1.6-0.7,1.6-1.6V235.5
		C697.2,234.6,696.5,233.9,695.6,233.9C695.6,233.9,695.6,233.9,695.6,233.9 M465.5,581.2c-66.2,0-119.8-53.6-119.8-119.8
		c0-66.2,53.6-119.8,119.8-119.8c66.2,0,119.8,53.6,119.8,119.8C585.3,527.5,531.7,581.1,465.5,581.2"/>
	<path class="st1" d="M539.9,412.2H394.6c-0.8,0-1.5,0.6-1.6,1.4v35.2c0,0.8,0.7,1.5,1.6,1.4c0,0,0,0,0,0h145.3
		c0.8,0.1,1.6-0.6,1.6-1.4c0,0,0,0,0,0v-35.2C541.5,412.8,540.8,412.1,539.9,412.2"/>
	<path class="st1" d="M539.9,475H394.6c-0.8,0-1.5,0.6-1.6,1.5v35.2c0,0.8,0.7,1.5,1.6,1.4c0,0,0,0,0,0h145.3
		c0.8,0.1,1.6-0.6,1.6-1.4c0,0,0,0,0,0v-35.2C541.5,475.6,540.8,475,539.9,475"/>
</g>
</svg>
