<?xml version="1.0" encoding="utf-8"?>
<!-- Generator: Adobe Illustrator 23.0.3, SVG Export Plug-In . SVG Version: 6.00 Build 0)  -->
<svg version="1.1" id="Layer_1" xmlns="http://www.w3.org/2000/svg" xmlns:xlink="http://www.w3.org/1999/xlink" x="0px" y="0px"
	 viewBox="0 0 1000 1000" style="enable-background:new 0 0 1000 1000;" xml:space="preserve">
<style type="text/css">
	.st0{fill:#00689D;}
	.st1{fill:#FFFFFF;}
</style>
<title>Artboard 1</title>
<rect x="0.3" y="0.2" class="st0" width="999.8" height="999.8"/>
<g>
	<path class="st1" d="M646.1,302c0,0-8.4,11.2-6,22.1c2.4,10.9,14.9,17.4,14.9,17.4s8.4-11.2,6-22S646.1,302,646.1,302"/>
	<path class="st1" d="M632.4,365.9c0,0,8.4-11.2,6-22.1s-14.9-17.4-14.9-17.4s-8.4,11.2-6,22.1S632.4,365.9,632.4,365.9"/>
	<path class="st1" d="M667,353.9c0,0,8.9,9,19,8.1s17.6-11.3,17.6-11.3s-8.9-9-19-8.1S667,353.9,667,353.9"/>
	<path class="st1" d="M681.6,306c-8.2,8.4-7.1,23.1-7.1,23.1s14.5,1.3,22.8-7.1s7.1-23.1,7.1-23.1S689.8,297.7,681.6,306"/>
	<path class="st1" d="M663.4,387.1c10.1,1.2,19.6-7.5,19.6-7.5s-6.9-10.6-17-11.8s-19.6,7.5-19.6,7.5S653.3,385.9,663.4,387.1"/>
	<path class="st1" d="M672.4,562.3h-75.4c-5.9,0-10.7,4.8-10.7,10.7c0,5.9,4.8,10.7,10.7,10.7h75.4c5.9,0,10.7-4.8,10.7-10.7
		C683.1,567,678.3,562.3,672.4,562.3"/>
	<path class="st1" d="M672.4,679.8h-75.4c-5.9,0-10.7,4.8-10.7,10.7c0,5.9,4.8,10.7,10.7,10.7h75.4c5.9,0,10.7-4.8,10.7-10.7
		C683.1,684.6,678.3,679.8,672.4,679.8"/>
	<path class="st1" d="M333.5,536.4c-1.7-0.5-3.5-1-5.2-1.3C328.3,535.1,330.2,535.7,333.5,536.4"/>
	<path class="st1" d="M669.6,591h-69.8c-3.3,0-6.1,2.7-6.1,6.1v21.2l-45.6,5l-66.6-1.5V581c9-1.1,17.8-2.9,26.5-5.4
		c64.1-18.1,78.1-71.1,76.7-107.8c-1.4-37.3,10.6-51.8,27.7-58.3c4.6-1.7,9.4-3,14.2-3.8c0.2,9.2,2,19.8,6.2,32.5
		c1.5-0.1,3-0.2,4.5-0.4c-4.3-13-6.2-23.7-6.3-32.8c5-0.6,10.1-0.8,15.2-0.5c-5.1-3-10-6.4-14.5-10.3c2.9-17.7,13.4-28.5,24.3-39.7
		c6-6.1,12.1-12.4,17-19.9l-3.8-2.4c-4.6,7.1-10.6,13.3-16.4,19.2c-10.6,10.8-21.3,21.9-24.9,39.5c-3.9-3.5-7.5-7.2-11-11.1
		c-15.8-17.7-36.2-4.7-65.2,22.3s-65.5,27.9-101.2-8.5c-47-48.2-88.1-47.9-116.2-45.2c19.2,8.2,26,26.2,35.7,71.9
		c10.2,48,36,69.7,71.2,72.7c-19.6,6.9-20.6,18-46.8,36.1c-20.5,14.1-49.4,9.7-61,7c21.5,6.7,46.9,29.2,69.6,37
		c13.4,4.6,27.4,7.4,41.5,8.5v38.9l-119.3-2.7v27.2l222.8-5.1l45.6,5v21.1c0,3.4,2.7,6.1,6.1,6.1h69.8c3.4,0,6.1-2.7,6.1-6.1v-69.2
		C675.7,593.7,673,591,669.6,591z M455.6,582.5c5,0.1,10-0.1,14.9-0.4v39.4l-14.9-0.3V582.5z"/>
	<path class="st1" d="M318.8,640.8c0,5.7-4,10.4-8.9,10.4h-5.4c-4.9,0-8.9-4.6-8.9-10.4V622c0-5.7,4-10.4,8.9-10.4h5.4
		c4.9,0,8.9,4.6,8.9,10.4V640.8z"/>
</g>
</svg>
