<?xml version="1.0" encoding="utf-8"?>
<!-- Generator: Adobe Illustrator 23.0.3, SVG Export Plug-In . SVG Version: 6.00 Build 0)  -->
<svg version="1.1" id="Layer_1" xmlns="http://www.w3.org/2000/svg" xmlns:xlink="http://www.w3.org/1999/xlink" x="0px" y="0px"
	 viewBox="0 0 1000 1000" style="enable-background:new 0 0 1000 1000;" xml:space="preserve">
<style type="text/css">
	.st0{fill:#19486A;}
	.st1{fill:#FFFFFF;}
</style>
<title>Artboard 1</title>
<rect class="st0" width="1000" height="1000"/>
<path class="st1" d="M748.3,474c0-70.2-55.9-127.6-125.5-130.1c-23.9-67.8-98.3-103.4-166.1-79.5c-37.1,13.1-66.4,42.3-79.5,79.5
	c-69.6,2.5-125.4,59.9-125.4,130.1c0,40.1,18.6,78,50.3,102.7c-3.4,11.8-5.1,23.9-5.1,36.2c0,71.8,58.4,130.2,130.3,130.2
	c26.2,0,51.9-7.9,73.5-22.8c21.4,14.3,46.5,22,72.3,21.9c71.8,0,130.2-58.4,130.2-130.2c0-12-1.7-23.9-4.9-35.4
	C729.8,551.9,748.2,514.1,748.3,474 M604,387.2c0,52.1-38.6,95.3-88.7,102.8c-0.9-5.3-1.3-10.6-1.4-16
	c0.1-51.5,37.8-95.2,88.7-102.8C603.5,376.5,604,381.9,604,387.2 M500.5,686.5c-41.2-39.8-42.3-105.5-2.5-146.7c0.5-0.5,1-1,1.5-1.5
	c41.2,39.8,42.3,105.4,2.5,146.6C501.5,685.4,501,686,500.5,686.5 M397.3,371.2c50.1,7.5,88.7,50.6,88.7,102.8
	c0,5.4-0.5,10.7-1.4,16c-50.1-7.5-88.6-50.6-88.6-102.8C396,381.9,396.5,376.5,397.3,371.2 M474.9,520.5
	c-25.5,51.2-87.7,72.1-138.9,46.6c-0.6-0.3-1.2-0.6-1.7-0.9c25.5-51.2,87.7-72.1,138.9-46.6C473.7,519.9,474.3,520.2,474.9,520.5
	 M524.8,519.8c50.7-26.6,113.4-7.1,140,43.6c0.5,0.9,0.9,1.8,1.4,2.7c-50.7,26.6-113.4,7.1-140-43.6
	C525.7,521.7,525.2,520.8,524.8,519.8 M500,283.2c41.4,0,78.8,24.6,95.4,62.5c-41.8,7.5-77.3,34.8-95.4,73.2
	c-18-38.4-53.6-65.7-95.4-73.2C421.2,307.8,458.6,283.3,500,283.2 M278,474c0.1-53.1,40.1-97.7,92.9-103.4
	c-5.5,42.1,9.9,84.3,41.4,112.9c-42.3,4.9-79.6,30.2-99.9,67.7C290.5,531.5,278,503.4,278,474 M323.1,612.8c0-7.2,0.8-14.5,2.3-21.6
	c38,18.4,82.6,17.2,119.5-3.3c-7.8,41.5,5.1,84.3,34.6,114.5c-49.5,29-113.1,12.4-142.1-37C328,649.5,323.1,631.3,323.1,612.8
	 M676.9,612c0.1,57.4-46.3,103.9-103.7,104c-18.1,0-35.9-4.7-51.6-13.7c29-30.5,41.4-73.1,33.3-114.4c37,20.6,81.8,21.8,119.9,3.3
	C676.2,598,676.9,605,676.9,612 M588.5,482.7c26.6-24.6,41.8-59.2,41.8-95.5c0-5.6-0.4-11.1-1.1-16.6c57,6,98.4,57.2,92.3,114.2
	c-2.7,25.4-14.7,48.9-33.6,66.1C667.8,513.3,630.7,487.8,588.5,482.7"/>
</svg>
