<?xml version="1.0" encoding="utf-8"?>
<!-- Generator: Adobe Illustrator 23.0.3, SVG Export Plug-In . SVG Version: 6.00 Build 0)  -->
<svg version="1.1" id="Layer_1" xmlns="http://www.w3.org/2000/svg" xmlns:xlink="http://www.w3.org/1999/xlink" x="0px" y="0px"
	 viewBox="0 0 1000 1000" style="enable-background:new 0 0 1000 1000;" xml:space="preserve">
<style type="text/css">
	.st0{fill:#FD9D24;}
	.st1{fill:#FFFFFF;}
</style>
<title>Artboard 1</title>
<rect class="st0" width="1000" height="1000"/>
<g>
	<g>
		<path class="st1" d="M165,613.2h150.4c2,0,3.7-1.6,3.7-3.6c0-0.9-0.3-1.8-1-2.5l-0.2-0.2L243.1,510l-0.7-0.8
			c-0.7-0.8-1.7-1.2-2.7-1.2c-0.9,0-1.8,0.4-2.4,1l-0.4,0.5l-0.7,0.8l-73,95.8l-1.1,1.4c-0.4,0.6-0.6,1.3-0.6,2.1
			C161.3,611.5,162.9,613.2,165,613.2C165,613.2,165,613.2,165,613.2z"/>
		<path class="st1" d="M314.9,626.9H164.2c-2,0-3.7,1.7-3.7,3.7l0,0v117.9c0,2,1.6,3.7,3.7,3.7c0,0,0,0,0,0h48.5V678
			c0-2,1.6-3.7,3.7-3.7c0,0,0,0,0,0h45c2,0,3.7,1.6,3.7,3.7c0,0,0,0,0,0v74.2h49.8c2,0,3.7-1.7,3.7-3.7v0V630.5
			C318.6,628.5,316.9,626.9,314.9,626.9z"/>
	</g>
	<path class="st1" d="M835.8,596H686.7c-2,0-3.6,1.5-3.6,3.5c0,0,0,0,0,0v150.6c0,2,1.7,3.6,3.7,3.5h149.2c2,0,3.6-1.6,3.7-3.5
		c0,0,0,0,0,0V599.5C839.5,597.5,837.8,595.9,835.8,596C835.9,596,835.8,596,835.8,596 M754.2,694.3c0,2-1.7,3.6-3.6,3.6
		c0,0,0,0,0,0H706c-2,0-3.6-1.6-3.7-3.6c0,0,0,0,0,0v-27.1c0-2,1.7-3.6,3.6-3.6c0,0,0,0,0,0h44.6c2,0,3.6,1.6,3.6,3.5c0,0,0,0,0,0
		V694.3z M754.2,644.2c0,2-1.7,3.6-3.6,3.6c0,0,0,0,0,0H706c-2,0-3.6-1.6-3.7-3.6c0,0,0,0,0,0v-27.1c0-2,1.7-3.6,3.7-3.5h44.6
		c2,0,3.6,1.6,3.6,3.5c0,0,0,0,0,0V644.2z M822.3,694.3c0,2-1.7,3.6-3.6,3.6c0,0,0,0,0,0h-44.6c-2,0-3.6-1.6-3.7-3.5c0,0,0,0,0,0
		v-27.1c0-2,1.7-3.6,3.6-3.6c0,0,0,0,0,0h44.5c2,0,3.6,1.6,3.7,3.5c0,0,0,0,0,0L822.3,694.3z M822.3,644.2c0,2-1.7,3.6-3.6,3.6
		c0,0,0,0,0,0h-44.6c-2,0-3.6-1.6-3.7-3.5c0,0,0,0,0,0v-27.1c0-2,1.7-3.6,3.7-3.5c0,0,0,0,0,0h44.5c2,0,3.6,1.6,3.7,3.5c0,0,0,0,0,0
		L822.3,644.2z"/>
	<path class="st1" d="M489.1,246.3h-146c-2,0-3.6,1.6-3.6,3.6l0,0v498.9c0,2,1.6,3.6,3.6,3.6h146c2,0,3.6-1.6,3.6-3.6V249.9
		C492.6,247.9,491,246.3,489.1,246.3 M402.2,695.5c0,1.1-0.9,1.9-1.9,1.9h-33.4c-1.1,0-1.9-0.9-1.9-1.9v-37.2c0-1.1,0.9-1.9,1.9-1.9
		c0,0,0,0,0,0h33.4c1.1,0,1.9,0.8,1.9,1.9c0,0,0,0,0,0V695.5z M402.2,610c0,1.1-0.9,1.9-1.9,1.9h0h-33.4c-1,0-1.9-0.9-1.9-1.9v-37.2
		c0-1.1,0.8-1.9,1.9-1.9c0,0,0,0,0,0h33.4c1.1,0,1.9,0.8,1.9,1.9c0,0,0,0,0,0V610z M402.2,524.5c0,1.1-0.9,1.9-1.9,1.9h-33.4
		c-1.1,0-1.9-0.9-1.9-1.9v-37.3c0-1.1,0.9-1.9,1.9-1.9h33.4c1.1,0,1.9,0.9,1.9,1.9V524.5z M402.2,438.9c0,1.1-0.9,1.9-1.9,1.9h-33.4
		c-1.1,0-1.9-0.9-1.9-1.9v-37.2c0-1,0.9-1.9,1.9-1.9c0,0,0,0,0,0h33.4c1,0,1.9,0.8,1.9,1.9c0,0,0,0,0,0V438.9z M402.2,353.4
		c0,1.1-0.9,1.9-1.9,1.9h-33.4c-1.1,0-1.9-0.9-1.9-1.9v-37.3c0-1.1,0.9-1.9,1.9-1.9h0h33.4c1.1,0,1.9,0.9,1.9,1.9v0V353.4z
		 M467.8,695.5c0,1.1-0.9,1.9-1.9,1.9c0,0,0,0,0,0h-33.4c-1.1,0-1.9-0.8-1.9-1.9c0,0,0,0,0,0v-37.2c0-1.1,0.9-1.9,1.9-1.9
		c0,0,0,0,0,0h33.4c1.1,0,1.9,0.8,1.9,1.9c0,0,0,0,0,0L467.8,695.5z M467.8,610c0,1.1-0.8,1.9-1.9,1.9c0,0,0,0,0,0h-33.4
		c-1,0-1.9-0.8-1.9-1.9c0,0,0,0,0,0v-37.2c0-1,0.8-1.9,1.9-1.9c0,0,0,0,0,0h33.4c1.1,0,1.9,0.8,1.9,1.9c0,0,0,0,0,0L467.8,610z
		 M467.8,524.5c0,1.1-0.9,1.9-1.9,1.9c0,0,0,0,0,0h-33.4c-1.1,0-1.9-0.8-1.9-1.9c0,0,0,0,0,0v-37.3c0-1.1,0.9-1.9,1.9-1.9
		c0,0,0,0,0,0h33.4c1.1,0,1.9,0.8,1.9,1.9l0,0L467.8,524.5z M467.8,438.9c0,1.1-0.9,1.9-1.9,1.9c0,0,0,0,0,0h-33.4
		c-1.1,0-1.9-0.8-1.9-1.9c0,0,0,0,0,0v-37.3c0-1,0.9-1.9,1.9-1.9c0,0,0,0,0,0h33.4c1,0,1.9,0.8,1.9,1.9c0,0,0,0,0,0L467.8,438.9z
		 M467.8,353.4c0,1.1-0.9,1.9-1.9,1.9c0,0,0,0,0,0h-33.4c-1.1,0-1.9-0.8-1.9-1.9c0,0,0,0,0,0v-37.3c0-1.1,0.8-1.9,1.9-1.9
		c0,0,0,0,0,0h33.4c1.1,0,1.9,0.8,1.9,1.9c0,0,0,0,0,0L467.8,353.4z"/>
	<path class="st1" d="M839.3,580.8c0,1.7-1.3,3-3,3H686.2c-1.7,0-3-1.3-3-3v-30c0-1.7,1.3-3,3-3h150.2c1.7,0,3,1.3,3,3V580.8z"/>
	<path class="st1" d="M665.4,340.5c-0.5-1.6-2-2.8-3.7-2.8c-0.7,0-1.5,0.3-2.1,0.7l-0.3,0.2l-1.2,1.6l-143.5,182l-0.7,0.9
		c-0.8,0.7-1.2,1.8-1.2,2.8v223.6c0,2,1.6,3.6,3.6,3.6c0,0,0,0,0,0h145.8c2,0,3.6-1.6,3.6-3.5c0,0,0,0,0,0V342
		C665.7,341.5,665.6,341,665.4,340.5z M605,439.4l1-1.3c9.8-12.6,26.4-33,34.4-42.9l1.1-1.3c0.8-1,2-1.5,3.2-1.5c2,0,3.6,1.4,4,3.3
		v46.1c0,2.2-1.8,4-4,4.1c-0.1,0-0.1,0-0.2,0s-0.1,0-0.2,0h-35.8c-0.1,0-0.1,0-0.2,0s-0.1,0-0.2,0c-2.2-0.1-4-1.9-4-4.1
		C604.2,441,604.5,440.1,605,439.4z M582.3,694.3c0,2-1.6,3.6-3.5,3.6c0,0,0,0,0,0h-43.5c-2,0-3.6-1.6-3.6-3.5c0,0,0,0,0,0V667
		c0-2,1.6-3.6,3.6-3.6c0,0,0,0,0,0h43.5c2,0,3.6,1.6,3.6,3.5c0,0,0,0,0,0L582.3,694.3z M582.3,644c0,2-1.6,3.6-3.5,3.6c0,0,0,0,0,0
		h-43.5c-2,0-3.6-1.6-3.6-3.5c0,0,0,0,0,0v-27.2c0-2,1.6-3.6,3.5-3.6c0,0,0,0,0,0h43.5c2,0,3.6,1.6,3.6,3.5c0,0,0,0,0,0L582.3,644z
		 M582.3,593.6c0,2-1.6,3.6-3.6,3.6c0,0,0,0,0,0h-43.5c-2,0-3.6-1.6-3.6-3.5c0,0,0,0,0,0v-27.2c0-2,1.6-3.6,3.5-3.6c0,0,0,0,0,0
		h43.5c2,0,3.6,1.6,3.6,3.5c0,0,0,0,0,0L582.3,593.6z M582.4,483.4v60c0,2-1.6,3.6-3.6,3.6h-43.5c-2,0-3.6-1.6-3.6-3.5c0,0,0,0,0,0
		v-7.5c0-0.5,0.1-0.9,0.3-1.3c0.1-0.1,0.1-0.3,0.2-0.4c0.1-0.2,0.2-0.3,0.3-0.5c0.1-0.2,0.3-0.4,0.4-0.6c5.6-8,30.7-38.9,41.2-51.8
		l1.1-1.3c0.8-1,2-1.5,3.2-1.5c2,0,3.6,1.4,4,3.3L582.4,483.4z M648.8,694.3c0,2-1.6,3.6-3.6,3.6l0,0h-43.5c-2,0-3.6-1.6-3.6-3.5
		c0,0,0,0,0,0V667c0-2,1.6-3.6,3.6-3.6c0,0,0,0,0,0h43.5c2,0,3.6,1.6,3.6,3.6V694.3z M648.8,644c0,2-1.6,3.6-3.6,3.6l0,0h-43.5
		c-2,0-3.6-1.6-3.6-3.5c0,0,0,0,0,0v-27.2c0-2,1.6-3.6,3.5-3.6c0,0,0,0,0,0h43.5c2,0,3.6,1.6,3.6,3.6l0,0V644z M648.8,593.6
		c0,2-1.6,3.6-3.6,3.6h-43.5c-2,0-3.6-1.6-3.6-3.5c0,0,0,0,0,0v-27.2c0-2,1.6-3.6,3.6-3.6c0,0,0,0,0,0h43.5c2,0,3.6,1.6,3.6,3.6l0,0
		V593.6z M648.8,543.3c0,2-1.6,3.6-3.6,3.6h-43.5c-2,0-3.6-1.6-3.6-3.5c0,0,0,0,0,0v-27.2c0-2,1.6-3.6,3.6-3.6c0,0,0,0,0,0h43.5
		c2,0,3.6,1.6,3.6,3.6l0,0V543.3z M648.8,493c0,2-1.6,3.6-3.6,3.6l0,0h-43.5c-2,0-3.6-1.6-3.6-3.5c0,0,0,0,0,0v-27.2
		c0-2,1.6-3.6,3.6-3.6c0,0,0,0,0,0h43.5c2,0,3.6,1.6,3.6,3.6c0,0,0,0,0,0V493z"/>
</g>
</svg>
