<?xml version="1.0" encoding="utf-8"?>
<!-- Generator: Adobe Illustrator 23.0.3, SVG Export Plug-In . SVG Version: 6.00 Build 0)  -->
<svg version="1.1" id="Layer_1" xmlns="http://www.w3.org/2000/svg" xmlns:xlink="http://www.w3.org/1999/xlink" x="0px" y="0px"
	 viewBox="0 0 1000 1000" style="enable-background:new 0 0 1000 1000;" xml:space="preserve">
<style type="text/css">
	.st0{fill:#BF8B2E;}
	.st1{fill:#FFFFFF;}
</style>
<title>Artboard 1</title>
<rect id="_Path_" y="0" class="st0" width="1000" height="1000.1"/>
<path id="_Path_4" class="st1" d="M778.5,363.7c-40.8-32.2-89.7-35.7-108.8-35.7c-10.1,0-19.4,0.9-26.3,2.5l-2.7,0.6
	c-25.8,6.1-69.1,16.3-119.4,78.8l-1.5,1.8c-0.8,1.1-1.2,2.4-1.3,3.8c0,1.2,0.3,2.3,0.9,3.3l1.1,1.9c8.3,13.9,15.2,26,20.7,36.2
	c1.7,3.3,5.7,4.6,9,2.9c0.7-0.3,1.3-0.8,1.8-1.4c0.3-0.5,0.7-1,1-1.3c43.4-60.1,77.5-68.1,100-73.4l2.8-0.7
	c4.5-0.9,9.2-1.3,13.8-1.2c10.5,0,46.9,1.7,75.3,24.2c25.3,20,38.1,51.8,38.1,94.8c0,71.9-34.8,100-64,110.8
	c-11.4,4.2-23.5,6.3-35.7,6.3c-18.5-0.1-36.8-4.3-53.6-12.2l-2.1-1c-25.1-10.9-62.6-33.6-98-104.8
	c-72.7-146-133.7-159.8-174.1-168.9l-2.1-0.5c-3.1-0.7-11.8-2.3-26-2.3c-23.4,0-68.4,4.6-107,35.4c-26.3,21-57.8,61.8-57.8,137
	c0,45.8,9.4,76,33.6,107.8c4.5,6.2,46.6,60.6,127.5,60.6c12.4,0,24.8-1.3,36.9-3.6c14.8-2.8,37.5-10.1,63-28.8l21.2,19.2
	c2.5,2.1,6.3,2,8.6-0.4c1-1.1,1.6-2.5,1.5-4l16.4-101.3v-1.2c0-1.7-0.7-3.3-2-4.4c-1.2-1.1-2.7-1.6-4.3-1.6l0,0l-98.7,27.2l-1.9,0.3
	c-1.2,0.3-2.3,0.9-3.1,1.8c-2.3,2.5-2.1,6.3,0.4,8.6c0,0,0,0,0.1,0.1l20.4,18.5c-10.7,6.6-21.5,11-31.9,13
	c-8.6,1.7-17.4,2.5-26.2,2.6c-55.9,0-83.4-36.7-84.5-38.2l-0.6-0.8c-17-22.3-22.7-41.3-22.7-75.3c0-43.1,12.6-75,37.4-94.8
	c27.7-22.1,63.2-23.8,73.5-23.8c4.7-0.1,9.4,0.3,14,1.2l2.2,0.5C376.1,391,420.3,401,481.6,524c32.3,65,72.9,107.4,123.9,129.8
	c5.9,3,37.6,18.1,78.1,18.1c18.6,0.1,37.1-3.2,54.5-9.7c29.8-11.1,99.1-49.1,99.1-161.4C837.1,425.8,805.3,384.9,778.5,363.7z"/>
</svg>
