<?xml version="1.0" encoding="utf-8"?>
<!-- Generator: Adobe Illustrator 23.0.3, SVG Export Plug-In . SVG Version: 6.00 Build 0)  -->
<svg version="1.1" id="Layer_1" xmlns="http://www.w3.org/2000/svg" xmlns:xlink="http://www.w3.org/1999/xlink" x="0px" y="0px"
	 viewBox="0 0 1000 1000" style="enable-background:new 0 0 1000 1000;" xml:space="preserve">
<style type="text/css">
	.st0{fill:#0A97D9;}
	.st1{fill:#FFFFFF;}
</style>
<title>Artboard 1</title>
<rect class="st0" width="1000" height="1000"/>
<g>
	<path class="st1" d="M769.6,603.6C757,586.6,675.7,483,561.7,483c-99,0-204.9,89.8-204.9,89.8s-39.8-81.4-121.1-89.2
		c-0.5,0-1-0.1-1.5-0.1h-0.5c-1.7,0.1-3.3,1.8-3.1,3.2c0.2,1.1,0.7,2.1,1.3,3c10.5,17.3,37.3,66.9,37.3,116.3
		c0,49.6-26.9,99.3-37.3,116.6l-0.7,1.1c-0.3,0.5-0.5,1.1-0.5,1.7c0,1.7,1.3,3.1,3,3.2l0.9-0.1c0.3,0,0.6,0,0.9-0.1
		c81.6-7.6,121.5-89.2,121.5-89.2S462.8,729,561.7,729c114,0,195.3-103.6,207.9-120.6c0.3-0.5,0.6-0.9,0.9-1.2
		c0.2-0.4,0.3-0.8,0.3-1.2c0-0.4-0.1-0.8-0.3-1.2C770.2,604.4,769.9,604,769.6,603.6 M625.1,619.1c-18.4,0-33.2-14.9-33.2-33.3
		c0-18.4,14.9-33.2,33.3-33.2c18.3,0,33.2,14.9,33.2,33.2C658.4,604.2,643.5,619.1,625.1,619.1C625.1,619.1,625.1,619.1,625.1,619.1
		"/>
	<path class="st1" d="M233.2,288.2c-0.2-0.1-0.4-0.1-0.6-0.1c-1.8,0-3.3,1.5-3.3,3.3c0,0,0,0,0,0V314c0,0.9,0.3,1.7,0.9,2.4
		c55,47.8,107.1,3,119.2-8.8c0.2-0.4,0.5-0.7,0.9-0.9c0.5-0.4,1.2-0.6,1.8-0.6c0.8,0,1.6,0.3,2.2,0.9c0,0.1,0.1,0.1,0.2,0.1
		c62.1,59.3,127.3,11.3,140.9,0l1.3-1.2c0.4-0.2,0.8-0.3,1.2-0.2c0.4,0,0.9,0.1,1.3,0.2l1.4,1.2c13.6,11.3,78.7,59.3,140.9,0
		c0,0,0.1-0.1,0.1-0.1c0.6-0.6,1.4-0.9,2.2-0.9c0.6,0,1.3,0.2,1.8,0.6c0.4,0.2,0.7,0.6,0.9,0.9c12,11.8,64.1,56.6,119.2,8.8
		c0.6-0.6,1-1.5,1-2.4v-22.7c0-1.8-1.4-3.3-3.2-3.3c0,0,0,0,0,0c-0.2,0-0.5,0.1-0.7,0.1c-0.5,0.3-1,0.6-1.7,0.9
		c-16.9,8.5-69.4,28.6-117-16.4c-0.5-0.4-0.9-0.8-1.4-1.3c-0.4-0.2-0.9-0.3-1.4-0.3c-0.3,0-0.7,0.1-1,0.1c-0.7,0.3-1.2,0.7-1.7,1.3
		c-14.2,10.8-79.4,54.9-137.4,0.8l-0.9-0.8c-0.6-0.6-1.5-1-2.4-1c-0.9,0-1.7,0.4-2.3,1l-0.9,0.8c-58,54.1-123.2,10-137.4-0.8
		c-0.4-0.6-1-1-1.6-1.3c-0.3-0.1-0.7-0.1-1-0.1c-0.5,0-0.9,0.1-1.4,0.3c-0.4,0.5-0.9,0.9-1.4,1.3c-47.6,45.1-100.1,24.9-117,16.4
		C234.3,288.7,233.8,288.5,233.2,288.2"/>
	<path class="st1" d="M349.4,390.1c0.2-0.3,0.5-0.7,0.9-0.9c0.5-0.4,1.2-0.6,1.8-0.6c0.8,0,1.6,0.3,2.2,0.9c0,0.1,0.1,0.1,0.1,0.1
		c62.1,59.2,127.3,11.2,140.9,0l1.3-1.3c0.4-0.2,0.8-0.2,1.2-0.2c0.4,0,0.9,0.1,1.3,0.2l1.3,1.3c13.6,11.2,78.7,59.2,140.9,0
		c0,0,0.1-0.1,0.1-0.1c0.6-0.6,1.4-0.9,2.2-0.9c0.6,0,1.3,0.2,1.8,0.6c0.4,0.2,0.7,0.5,0.9,0.9c12,11.8,64.1,56.7,119.2,8.8
		c0.6-0.6,1-1.4,1-2.3v-22.8c0-1.8-1.4-3.2-3.2-3.2c0,0,0,0,0,0c-0.2,0-0.5,0.1-0.7,0.1l-1.7,0.8c-16.9,8.5-69.4,28.6-117-16.4
		l-1.4-1.3c-0.4-0.2-0.9-0.4-1.4-0.3c-0.3,0-0.7,0.1-1,0.2c-0.7,0.2-1.3,0.6-1.7,1.2c-14.2,10.8-79.4,54.9-137.4,0.8l-0.9-0.9
		c-0.6-0.6-1.5-0.9-2.4-0.9c-0.8,0-1.7,0.3-2.3,0.9l-0.9,0.9c-58,54.1-123.2,10-137.4-0.8c-0.4-0.6-0.9-1-1.6-1.2
		c-0.3-0.2-0.7-0.2-1-0.2c-0.5,0-0.9,0.1-1.4,0.3c-0.5,0.5-0.9,0.9-1.4,1.3c-47.6,45-100.1,24.9-117,16.4l-1.7-0.8
		c-0.2-0.1-0.4-0.1-0.6-0.1c-1.8,0-3.3,1.4-3.3,3.2c0,0,0,0,0,0v22.7c0,0.9,0.3,1.7,0.9,2.3c55,47.8,107.1,3,119.2-8.8"/>
</g>
</svg>
