<?xml version="1.0" encoding="utf-8"?>
<!-- Generator: Adobe Illustrator 23.0.3, SVG Export Plug-In . SVG Version: 6.00 Build 0)  -->
<svg version="1.1" id="Layer_1" xmlns="http://www.w3.org/2000/svg" xmlns:xlink="http://www.w3.org/1999/xlink" x="0px" y="0px"
	 viewBox="0 0 1000 1000" style="enable-background:new 0 0 1000 1000;" xml:space="preserve">
<style type="text/css">
	.st0{fill:#4C9F38;}
	.st1{fill:#FFFFFF;}
</style>
<title>Artboard 1</title>
<rect id="_Path_" y="0" class="st0" width="1000" height="1000"/>
<g>
	<path id="_Path_3" class="st1" d="M834.9,513.7c0-28.1-18-51-45.4-51c-13.7,0-30.2,15-39.1,24.2c-9-9.2-24.4-24.2-38-24.2
		c-27.3,0-46.5,22.8-46.5,51c0,13.4,5.2,26.4,14.5,36l0,0l70.1,70.2l70-70.2l-0.1,0C829.8,540,835,527.1,834.9,513.7z"/>
	<g id="_Group_">
		<path id="_Path_4" class="st1" d="M536.5,734.5h-0.7c-5.3-0.3-9.7-4.3-10.6-9.5l-35.6-207.4l-53.9,100c-3,5.6-10,7.7-15.6,4.7
			c-3.2-1.7-5.4-4.9-5.9-8.5l-22.9-160l-41.9,94.1c-1.8,4.2-6,6.8-10.5,6.9H175.9c-6.4-0.4-11.2-5.8-10.8-12.2
			c0.3-5.8,5-10.5,10.8-10.8h155.3l55.1-123.8c2.6-5.8,9.4-8.4,15.2-5.9c3.6,1.6,6.1,4.9,6.7,8.9l23.6,165l53.2-98.6
			c3-5.6,10-7.7,15.6-4.6c3.1,1.7,5.3,4.7,5.9,8.2l33,192.1l120.1-399.2c1.8-6.1,8.3-9.5,14.4-7.7c3.1,0.9,5.6,3.1,7,6l63.2,131.1
			c2.9,5.7,0.6,12.6-5.1,15.5c-5.7,2.9-12.6,0.6-15.5-5.1c-0.1-0.1-0.1-0.3-0.2-0.4l-50.4-104.4L547.5,726.3
			C546,731.2,541.6,734.5,536.5,734.5z"/>
	</g>
</g>
</svg>
