<?xml version="1.0" encoding="utf-8"?>
<!-- Generator: Adobe Illustrator 23.0.3, SVG Export Plug-In . SVG Version: 6.00 Build 0)  -->
<svg version="1.1" id="Layer_1" xmlns="http://www.w3.org/2000/svg" xmlns:xlink="http://www.w3.org/1999/xlink" x="0px" y="0px"
	 viewBox="0 0 1000 1000" style="enable-background:new 0 0 1000 1000;" xml:space="preserve">
<style type="text/css">
	.st0{fill:#DD1367;}
	.st1{fill:#FFFFFF;}
</style>
<title>Artboard 1</title>
<rect class="st0" width="1000" height="1000"/>
<g>
	<g>
		<path class="st1" d="M592.3,529H407.7c-1.2,0.1-2.1,1.1-2,2.2v55.5c-0.1,1.2,0.8,2.2,2,2.2h184.6c1.2-0.1,2.1-1.1,2-2.2v-55.5
			C594.4,530.1,593.5,529.1,592.3,529"/>
		<path class="st1" d="M592.3,411H407.7c-1.2,0.1-2.1,1.1-2,2.2v55.5c-0.1,1.2,0.8,2.2,2,2.2h184.6c1.2-0.1,2.1-1.1,2-2.2v-55.5
			C594.4,412,593.5,411.1,592.3,411"/>
	</g>
	<g>
		<path class="st1" d="M589.7,327.1l-88.6-88.6c-0.6-0.6-1.6-0.6-2.2,0l-88.6,88.6c-0.6,0.6-0.6,1.6,0,2.2c0.3,0.3,0.7,0.4,1.1,0.4
			h177.2c0.8,0,1.5-0.7,1.5-1.5C590.1,327.8,590,327.4,589.7,327.1z"/>
		<path class="st1" d="M672.9,589.7l88.6-88.6c0.6-0.6,0.6-1.6,0-2.2c0,0,0,0,0,0l-88.6-88.6c-0.6-0.6-1.6-0.6-2.2,0
			c-0.3,0.3-0.4,0.7-0.4,1.1v177.2c0,0.8,0.7,1.5,1.5,1.5C672.2,590.2,672.6,590,672.9,589.7z"/>
		<path class="st1" d="M410.3,672.9l88.6,88.6c0.6,0.6,1.6,0.6,2.1,0c0,0,0,0,0,0l88.6-88.6c0.6-0.6,0.6-1.6,0-2.2
			c-0.3-0.3-0.7-0.5-1.1-0.5H411.4c-0.8,0-1.5,0.6-1.6,1.5C409.8,672.2,410,672.6,410.3,672.9z"/>
		<path class="st1" d="M327.1,410.3l-88.6,88.6c-0.6,0.6-0.6,1.6,0,2.2c0,0,0,0,0,0l88.6,88.6c0.6,0.6,1.6,0.6,2.2,0
			c0.3-0.3,0.4-0.7,0.4-1.1V411.4c0-0.8-0.7-1.5-1.5-1.5C327.8,409.9,327.4,410,327.1,410.3z"/>
	</g>
</g>
</svg>
