<?xml version="1.0" encoding="utf-8"?>
<!-- Generator: Adobe Illustrator 23.0.3, SVG Export Plug-In . SVG Version: 6.00 Build 0)  -->
<svg version="1.1" id="Layer_1" xmlns="http://www.w3.org/2000/svg" xmlns:xlink="http://www.w3.org/1999/xlink" x="0px" y="0px"
	 viewBox="0 0 1000 1000" style="enable-background:new 0 0 1000 1000;" xml:space="preserve">
<style type="text/css">
	.st0{fill:#A21942;}
	.st1{fill:#FFFFFF;}
</style>
<title>Artboard 1</title>
<g id="_Group_">
	<rect id="_Path_" y="0" class="st0" width="1000" height="1000"/>
	<g>
		<path id="_Path_2" class="st1" d="M694.2,366.2l-101.6,96.7c-3.8,3.8-5.8,6.6-5.8,14.5v271c0,3.2,2.6,5.8,5.8,5.8h105
			c3.2,0,5.8-2.6,5.8-5.8V368.6C703.3,365.4,700.8,359.6,694.2,366.2"/>
		<path id="_Path_3" class="st1" d="M401.3,492.2l-101.6,96.6c-3.8,3.8-5.8,6.6-5.8,14.5v145c0,3.2,2.6,5.8,5.8,5.8h105
			c3.2,0,5.8-2.6,5.8-5.8V494.5C410.5,491.3,408,485.5,401.3,492.2"/>
		<path id="_Path_4" class="st1" d="M740.4,248.9c0-0.8-0.3-1.6-0.9-2.2c-0.5-0.5-1.2-0.8-1.9-0.8h-0.6h-0.8l-77.8,17.6l-1.4,0.1
			c-0.6,0.1-1.1,0.4-1.5,0.8c-1.1,1.2-1.1,3,0,4.2l0.9,0.9l17.8,17.8L497.8,463.6l-81.4-81.5c-0.9-0.9-2.4-0.9-3.3,0c0,0,0,0,0,0
			l-22.1,22.1l0,0L260.3,534.9c-0.9,0.9-0.9,2.4,0,3.3l22.1,22.1c0.9,0.9,2.4,0.9,3.3,0c0,0,0,0,0,0l129-128.9l59.1,59.1
			c0.1,0.1,0.1,0.2,0.2,0.3l22.1,22.1c0.9,0.9,2.4,0.9,3.3,0c0,0,0,0,0,0l200.1-200.2l18.7,18.6c1.1,1.1,3,1.2,4.1,0c0,0,0,0,0,0
			c0.5-0.5,0.8-1.2,0.8-1.9v-0.2l17.1-79.4L740.4,248.9z"/>
		<path id="_Path_5" class="st1" d="M548.3,509.1l-49.2,49.6c-0.9,0.8-2.3,0.7-3.2-0.1l-44.5-45.4c-8.2-8.1-9.9-1.5-9.9,1.7v233.5
			c0,3.2,2.6,5.8,5.8,5.8c0,0,0,0,0,0h105c3.2,0,5.8-2.6,5.8-5.8V510.9C558,507.7,555.5,501.9,548.3,509.1"/>
	</g>
</g>
</svg>
