<?xml version="1.0" encoding="utf-8"?>
<!-- Generator: Adobe Illustrator 23.0.3, SVG Export Plug-In . SVG Version: 6.00 Build 0)  -->
<svg version="1.1" id="Layer_1" xmlns="http://www.w3.org/2000/svg" xmlns:xlink="http://www.w3.org/1999/xlink" x="0px" y="0px"
	 viewBox="0 0 1000 1000" style="enable-background:new 0 0 1000 1000;" xml:space="preserve">
<style type="text/css">
	.st0{fill:#26BDE2;}
	.st1{fill:#FFFFFF;}
</style>
<title>Artboard 1</title>
<rect class="st0" width="1000" height="1000"/>
<path class="st1" d="M684.7,246.3c-0.8-0.9-2-1.4-3.3-1.4H318.6c-2.3-0.1-4.2,1.7-4.2,3.9c0,0.3,0,0.6,0.1,0.9l61,368.6
	c0.3,2,2.1,3.5,4.2,3.5h74.8l5.1,60H428l73.2,73.2l73.4-73.4h-31.5l5.1-59.8h76.1c2.1,0,3.9-1.5,4.2-3.6l57-368.6
	C685.8,248.5,685.5,247.3,684.7,246.3z M544.4,541.4c-11.8,10.7-27.4,16.2-43.3,15.1c-15.9,1.1-31.6-4.3-43.3-15.1
	c-27.2-27.2-17.5-60.9-8-78.4c5.8-10.9,47.6-73.6,51.2-79v-0.4l0.2,0.2l0.1-0.2v0.4c3.5,5.3,45.3,68,51.2,79
	C561.9,480.5,571.6,514.3,544.4,541.4z M659.5,323.9c-9.8-4.3-22.3-2.8-34.3,2.1c-45,18.2-75.7,24.8-123,10
	c-29.8-9.3-57.7-28.9-90.7-17c-21.9,7.9-42.3,15.4-67,15.2l-14.3-73.3h339.5L659.5,323.9z"/>
</svg>
